<mxfile host="app.diagrams.net" modified="2022-03-17T17:36:43.376Z" agent="5.0 (Windows NT 10.0; Win64; x64) AppleWebKit/537.36 (KHTML, like Gecko) Chrome/99.0.4844.74 Safari/537.36" etag="liDYxgELEJ4CWL5u-s47" version="17.1.1" type="github">
  <diagram id="R2lEEEUBdFMjLlhIrx00" name="Page-1">
    <mxGraphModel dx="2664" dy="892" grid="1" gridSize="10" guides="1" tooltips="1" connect="1" arrows="1" fold="1" page="1" pageScale="1" pageWidth="1100" pageHeight="850" math="0" shadow="0" extFonts="Permanent Marker^https://fonts.googleapis.com/css?family=Permanent+Marker">
      <root>
        <mxCell id="0" />
        <mxCell id="1" parent="0" />
        <mxCell id="3pP2C2j7rVUZG_knr3YC-106" style="edgeStyle=orthogonalEdgeStyle;rounded=0;orthogonalLoop=1;jettySize=auto;html=1;exitX=0.25;exitY=1;exitDx=0;exitDy=0;" edge="1" parent="1" source="3pP2C2j7rVUZG_knr3YC-1" target="3pP2C2j7rVUZG_knr3YC-62">
          <mxGeometry relative="1" as="geometry">
            <mxPoint x="-170" y="280" as="targetPoint" />
          </mxGeometry>
        </mxCell>
        <mxCell id="3pP2C2j7rVUZG_knr3YC-1" value="BARANG" style="rounded=0;whiteSpace=wrap;html=1;fillColor=#dae8fc;strokeColor=#6c8ebf;" vertex="1" parent="1">
          <mxGeometry x="65" y="120" width="120" height="60" as="geometry" />
        </mxCell>
        <mxCell id="3pP2C2j7rVUZG_knr3YC-111" style="edgeStyle=orthogonalEdgeStyle;rounded=0;orthogonalLoop=1;jettySize=auto;html=1;exitX=1;exitY=0.5;exitDx=0;exitDy=0;entryX=0;entryY=0.5;entryDx=0;entryDy=0;" edge="1" parent="1" source="3pP2C2j7rVUZG_knr3YC-2" target="3pP2C2j7rVUZG_knr3YC-110">
          <mxGeometry relative="1" as="geometry" />
        </mxCell>
        <mxCell id="3pP2C2j7rVUZG_knr3YC-137" style="edgeStyle=orthogonalEdgeStyle;rounded=0;orthogonalLoop=1;jettySize=auto;html=1;exitX=0.25;exitY=1;exitDx=0;exitDy=0;entryX=0.5;entryY=0;entryDx=0;entryDy=0;" edge="1" parent="1" source="3pP2C2j7rVUZG_knr3YC-2" target="3pP2C2j7rVUZG_knr3YC-136">
          <mxGeometry relative="1" as="geometry" />
        </mxCell>
        <mxCell id="3pP2C2j7rVUZG_knr3YC-2" value="PEMBELI" style="rounded=0;whiteSpace=wrap;html=1;fillColor=#dae8fc;strokeColor=#6c8ebf;" vertex="1" parent="1">
          <mxGeometry x="-540" y="108" width="120" height="60" as="geometry" />
        </mxCell>
        <mxCell id="3pP2C2j7rVUZG_knr3YC-103" style="edgeStyle=orthogonalEdgeStyle;rounded=0;orthogonalLoop=1;jettySize=auto;html=1;exitX=0;exitY=0.5;exitDx=0;exitDy=0;entryX=1;entryY=0.5;entryDx=0;entryDy=0;" edge="1" parent="1" source="3pP2C2j7rVUZG_knr3YC-3" target="3pP2C2j7rVUZG_knr3YC-62">
          <mxGeometry relative="1" as="geometry" />
        </mxCell>
        <mxCell id="3pP2C2j7rVUZG_knr3YC-119" style="edgeStyle=orthogonalEdgeStyle;rounded=0;orthogonalLoop=1;jettySize=auto;html=1;exitX=0.5;exitY=1;exitDx=0;exitDy=0;entryX=0.5;entryY=0;entryDx=0;entryDy=0;" edge="1" parent="1" source="3pP2C2j7rVUZG_knr3YC-3" target="3pP2C2j7rVUZG_knr3YC-63">
          <mxGeometry relative="1" as="geometry" />
        </mxCell>
        <mxCell id="3pP2C2j7rVUZG_knr3YC-3" value="KARYAWAN" style="rounded=0;whiteSpace=wrap;html=1;fillColor=#dae8fc;strokeColor=#6c8ebf;" vertex="1" parent="1">
          <mxGeometry x="62.92" y="282.61" width="120" height="60" as="geometry" />
        </mxCell>
        <mxCell id="3pP2C2j7rVUZG_knr3YC-132" style="edgeStyle=orthogonalEdgeStyle;rounded=0;orthogonalLoop=1;jettySize=auto;html=1;exitX=0;exitY=0.5;exitDx=0;exitDy=0;entryX=1;entryY=0;entryDx=0;entryDy=0;" edge="1" parent="1" source="3pP2C2j7rVUZG_knr3YC-4" target="3pP2C2j7rVUZG_knr3YC-131">
          <mxGeometry relative="1" as="geometry" />
        </mxCell>
        <mxCell id="3pP2C2j7rVUZG_knr3YC-4" value="PENGIRIMAN" style="rounded=0;whiteSpace=wrap;html=1;fillColor=#dae8fc;strokeColor=#6c8ebf;" vertex="1" parent="1">
          <mxGeometry x="595" y="420.00000000000006" width="120" height="60" as="geometry" />
        </mxCell>
        <mxCell id="3pP2C2j7rVUZG_knr3YC-120" style="edgeStyle=orthogonalEdgeStyle;rounded=0;orthogonalLoop=1;jettySize=auto;html=1;exitX=0.25;exitY=1;exitDx=0;exitDy=0;entryX=0.5;entryY=0;entryDx=0;entryDy=0;" edge="1" parent="1" source="3pP2C2j7rVUZG_knr3YC-5" target="3pP2C2j7rVUZG_knr3YC-121">
          <mxGeometry relative="1" as="geometry">
            <mxPoint x="650" y="290" as="targetPoint" />
          </mxGeometry>
        </mxCell>
        <mxCell id="3pP2C2j7rVUZG_knr3YC-5" value="TRANSAKSI" style="rounded=0;whiteSpace=wrap;html=1;fillColor=#dae8fc;strokeColor=#6c8ebf;" vertex="1" parent="1">
          <mxGeometry x="620" y="110" width="120" height="60" as="geometry" />
        </mxCell>
        <mxCell id="3pP2C2j7rVUZG_knr3YC-6" value="Nama Barang" style="ellipse;whiteSpace=wrap;html=1;fillColor=#d5e8d4;strokeColor=#82b366;" vertex="1" parent="1">
          <mxGeometry x="-100" y="150" width="110" height="40" as="geometry" />
        </mxCell>
        <mxCell id="3pP2C2j7rVUZG_knr3YC-8" value="*ID Barang" style="ellipse;whiteSpace=wrap;html=1;fillColor=#d5e8d4;strokeColor=#82b366;" vertex="1" parent="1">
          <mxGeometry x="-320" y="302.61" width="110" height="40" as="geometry" />
        </mxCell>
        <mxCell id="3pP2C2j7rVUZG_knr3YC-9" value="Stok" style="ellipse;whiteSpace=wrap;html=1;fillColor=#d5e8d4;strokeColor=#82b366;" vertex="1" parent="1">
          <mxGeometry x="182.92" y="220" width="110" height="40" as="geometry" />
        </mxCell>
        <mxCell id="3pP2C2j7rVUZG_knr3YC-10" value="Ukuran Barang" style="ellipse;whiteSpace=wrap;html=1;fillColor=#d5e8d4;strokeColor=#82b366;" vertex="1" parent="1">
          <mxGeometry x="217.92000000000002" y="130" width="110" height="40" as="geometry" />
        </mxCell>
        <mxCell id="3pP2C2j7rVUZG_knr3YC-11" style="edgeStyle=orthogonalEdgeStyle;rounded=0;orthogonalLoop=1;jettySize=auto;html=1;exitX=0.5;exitY=1;exitDx=0;exitDy=0;" edge="1" parent="1">
          <mxGeometry relative="1" as="geometry">
            <mxPoint x="255" y="200" as="sourcePoint" />
            <mxPoint x="255" y="200" as="targetPoint" />
          </mxGeometry>
        </mxCell>
        <mxCell id="3pP2C2j7rVUZG_knr3YC-17" value="*ID Pembeli" style="ellipse;whiteSpace=wrap;html=1;fillColor=#d5e8d4;strokeColor=#82b366;" vertex="1" parent="1">
          <mxGeometry x="810" y="110" width="110" height="40" as="geometry" />
        </mxCell>
        <mxCell id="3pP2C2j7rVUZG_knr3YC-18" value="*ID Karyawan" style="ellipse;whiteSpace=wrap;html=1;fillColor=#d5e8d4;strokeColor=#82b366;" vertex="1" parent="1">
          <mxGeometry x="810" y="160" width="110" height="40" as="geometry" />
        </mxCell>
        <mxCell id="3pP2C2j7rVUZG_knr3YC-19" value="*ID Trasaksi" style="ellipse;whiteSpace=wrap;html=1;fillColor=#d5e8d4;strokeColor=#82b366;" vertex="1" parent="1">
          <mxGeometry x="530" y="210" width="110" height="40" as="geometry" />
        </mxCell>
        <mxCell id="3pP2C2j7rVUZG_knr3YC-20" value="No Telepon" style="ellipse;whiteSpace=wrap;html=1;fillColor=#d5e8d4;strokeColor=#82b366;" vertex="1" parent="1">
          <mxGeometry x="-370" y="170" width="110" height="40" as="geometry" />
        </mxCell>
        <mxCell id="3pP2C2j7rVUZG_knr3YC-21" value="Alamat" style="ellipse;whiteSpace=wrap;html=1;fillColor=#d5e8d4;strokeColor=#82b366;" vertex="1" parent="1">
          <mxGeometry x="-440" y="230" width="110" height="40" as="geometry" />
        </mxCell>
        <mxCell id="3pP2C2j7rVUZG_knr3YC-22" value="Nama" style="ellipse;whiteSpace=wrap;html=1;fillColor=#d5e8d4;strokeColor=#82b366;" vertex="1" parent="1">
          <mxGeometry x="-690" y="208" width="110" height="40" as="geometry" />
        </mxCell>
        <mxCell id="3pP2C2j7rVUZG_knr3YC-23" value="*ID Pembeli" style="ellipse;whiteSpace=wrap;html=1;fillColor=#d5e8d4;strokeColor=#82b366;" vertex="1" parent="1">
          <mxGeometry x="-690" y="118" width="110" height="40" as="geometry" />
        </mxCell>
        <mxCell id="3pP2C2j7rVUZG_knr3YC-24" value="Nama" style="ellipse;whiteSpace=wrap;html=1;fillColor=#d5e8d4;strokeColor=#82b366;" vertex="1" parent="1">
          <mxGeometry x="162.92" y="372.61" width="110" height="40" as="geometry" />
        </mxCell>
        <mxCell id="3pP2C2j7rVUZG_knr3YC-25" value="*ID Karyawan" style="ellipse;whiteSpace=wrap;html=1;fillColor=#d5e8d4;strokeColor=#82b366;" vertex="1" parent="1">
          <mxGeometry x="-27.08" y="372.61" width="110" height="40" as="geometry" />
        </mxCell>
        <mxCell id="3pP2C2j7rVUZG_knr3YC-26" value="*ID Barang" style="ellipse;whiteSpace=wrap;html=1;fillColor=#d5e8d4;strokeColor=#82b366;" vertex="1" parent="1">
          <mxGeometry x="670" y="210" width="110" height="40" as="geometry" />
        </mxCell>
        <mxCell id="3pP2C2j7rVUZG_knr3YC-27" value="*ID Transaksi" style="ellipse;whiteSpace=wrap;html=1;fillColor=#d5e8d4;strokeColor=#82b366;" vertex="1" parent="1">
          <mxGeometry x="780" y="430.00000000000006" width="110" height="40" as="geometry" />
        </mxCell>
        <mxCell id="3pP2C2j7rVUZG_knr3YC-28" value="*ID Barang" style="ellipse;whiteSpace=wrap;html=1;fillColor=#d5e8d4;strokeColor=#82b366;" vertex="1" parent="1">
          <mxGeometry x="670" y="530" width="110" height="40" as="geometry" />
        </mxCell>
        <mxCell id="3pP2C2j7rVUZG_knr3YC-29" value="*ID Kurir" style="ellipse;whiteSpace=wrap;html=1;fillColor=#d5e8d4;strokeColor=#82b366;" vertex="1" parent="1">
          <mxGeometry x="550" y="530" width="110" height="40" as="geometry" />
        </mxCell>
        <mxCell id="3pP2C2j7rVUZG_knr3YC-30" value="*ID Pelanggan" style="ellipse;whiteSpace=wrap;html=1;fillColor=#d5e8d4;strokeColor=#82b366;" vertex="1" parent="1">
          <mxGeometry x="780" y="480.00000000000006" width="110" height="40" as="geometry" />
        </mxCell>
        <mxCell id="3pP2C2j7rVUZG_knr3YC-31" style="edgeStyle=orthogonalEdgeStyle;rounded=0;orthogonalLoop=1;jettySize=auto;html=1;exitX=0.5;exitY=1;exitDx=0;exitDy=0;" edge="1" parent="1">
          <mxGeometry relative="1" as="geometry">
            <mxPoint x="-355" y="248" as="sourcePoint" />
            <mxPoint x="-355" y="248" as="targetPoint" />
          </mxGeometry>
        </mxCell>
        <mxCell id="3pP2C2j7rVUZG_knr3YC-33" style="edgeStyle=orthogonalEdgeStyle;rounded=0;orthogonalLoop=1;jettySize=auto;html=1;exitX=0.5;exitY=1;exitDx=0;exitDy=0;" edge="1" parent="1" source="3pP2C2j7rVUZG_knr3YC-6" target="3pP2C2j7rVUZG_knr3YC-6">
          <mxGeometry relative="1" as="geometry" />
        </mxCell>
        <mxCell id="3pP2C2j7rVUZG_knr3YC-44" value="Tanggal Transaksi" style="ellipse;whiteSpace=wrap;html=1;fillColor=#d5e8d4;strokeColor=#82b366;" vertex="1" parent="1">
          <mxGeometry x="810" y="210" width="110" height="40" as="geometry" />
        </mxCell>
        <mxCell id="3pP2C2j7rVUZG_knr3YC-118" style="edgeStyle=orthogonalEdgeStyle;rounded=0;orthogonalLoop=1;jettySize=auto;html=1;exitX=0.5;exitY=0;exitDx=0;exitDy=0;" edge="1" parent="1" source="3pP2C2j7rVUZG_knr3YC-57">
          <mxGeometry relative="1" as="geometry">
            <mxPoint x="122" y="530" as="targetPoint" />
          </mxGeometry>
        </mxCell>
        <mxCell id="3pP2C2j7rVUZG_knr3YC-133" style="edgeStyle=orthogonalEdgeStyle;rounded=0;orthogonalLoop=1;jettySize=auto;html=1;exitX=1;exitY=0.5;exitDx=0;exitDy=0;entryX=0;entryY=1;entryDx=0;entryDy=0;" edge="1" parent="1" source="3pP2C2j7rVUZG_knr3YC-57" target="3pP2C2j7rVUZG_knr3YC-131">
          <mxGeometry relative="1" as="geometry" />
        </mxCell>
        <mxCell id="3pP2C2j7rVUZG_knr3YC-57" value="KURIR" style="rounded=0;whiteSpace=wrap;html=1;fillColor=#dae8fc;strokeColor=#6c8ebf;" vertex="1" parent="1">
          <mxGeometry x="62.92" y="607.61" width="120" height="60" as="geometry" />
        </mxCell>
        <mxCell id="3pP2C2j7rVUZG_knr3YC-59" value="Nama" style="ellipse;whiteSpace=wrap;html=1;fillColor=#d5e8d4;strokeColor=#82b366;" vertex="1" parent="1">
          <mxGeometry x="162.92" y="697.61" width="110" height="40" as="geometry" />
        </mxCell>
        <mxCell id="3pP2C2j7rVUZG_knr3YC-61" value="*ID Kurir" style="ellipse;whiteSpace=wrap;html=1;fillColor=#d5e8d4;strokeColor=#82b366;" vertex="1" parent="1">
          <mxGeometry x="-27.08" y="697.61" width="110" height="40" as="geometry" />
        </mxCell>
        <mxCell id="3pP2C2j7rVUZG_knr3YC-62" value="pendataan barang" style="rhombus;whiteSpace=wrap;html=1;fillColor=#fff2cc;strokeColor=#d6b656;" vertex="1" parent="1">
          <mxGeometry x="-200" y="282.61" width="190" height="60" as="geometry" />
        </mxCell>
        <mxCell id="3pP2C2j7rVUZG_knr3YC-63" value="pegawai" style="rhombus;whiteSpace=wrap;html=1;fillColor=#fff2cc;strokeColor=#d6b656;" vertex="1" parent="1">
          <mxGeometry x="27.92" y="467.61" width="190" height="60" as="geometry" />
        </mxCell>
        <mxCell id="3pP2C2j7rVUZG_knr3YC-117" style="edgeStyle=orthogonalEdgeStyle;rounded=0;orthogonalLoop=1;jettySize=auto;html=1;exitX=1;exitY=0.5;exitDx=0;exitDy=0;entryX=0;entryY=0.25;entryDx=0;entryDy=0;" edge="1" parent="1" source="3pP2C2j7rVUZG_knr3YC-68" target="3pP2C2j7rVUZG_knr3YC-5">
          <mxGeometry relative="1" as="geometry" />
        </mxCell>
        <mxCell id="3pP2C2j7rVUZG_knr3YC-68" value="proses transaksi" style="rhombus;whiteSpace=wrap;html=1;fillColor=#fff2cc;strokeColor=#d6b656;" vertex="1" parent="1">
          <mxGeometry x="350" y="90" width="190" height="60" as="geometry" />
        </mxCell>
        <mxCell id="3pP2C2j7rVUZG_knr3YC-79" value="" style="endArrow=none;html=1;rounded=0;entryX=0.5;entryY=1;entryDx=0;entryDy=0;exitX=0.5;exitY=0;exitDx=0;exitDy=0;" edge="1" parent="1" source="3pP2C2j7rVUZG_knr3YC-9" target="3pP2C2j7rVUZG_knr3YC-1">
          <mxGeometry width="50" height="50" relative="1" as="geometry">
            <mxPoint x="510" y="450" as="sourcePoint" />
            <mxPoint x="560" y="400" as="targetPoint" />
          </mxGeometry>
        </mxCell>
        <mxCell id="3pP2C2j7rVUZG_knr3YC-80" value="" style="endArrow=none;html=1;rounded=0;entryX=0;entryY=0.5;entryDx=0;entryDy=0;exitX=0.5;exitY=0;exitDx=0;exitDy=0;" edge="1" parent="1" source="3pP2C2j7rVUZG_knr3YC-6" target="3pP2C2j7rVUZG_knr3YC-1">
          <mxGeometry width="50" height="50" relative="1" as="geometry">
            <mxPoint x="510" y="450" as="sourcePoint" />
            <mxPoint x="560" y="400" as="targetPoint" />
          </mxGeometry>
        </mxCell>
        <mxCell id="3pP2C2j7rVUZG_knr3YC-81" value="" style="endArrow=none;html=1;rounded=0;entryX=0;entryY=1;entryDx=0;entryDy=0;exitX=1;exitY=0.5;exitDx=0;exitDy=0;" edge="1" parent="1" source="3pP2C2j7rVUZG_knr3YC-8" target="3pP2C2j7rVUZG_knr3YC-62">
          <mxGeometry width="50" height="50" relative="1" as="geometry">
            <mxPoint x="510" y="450" as="sourcePoint" />
            <mxPoint x="560" y="400" as="targetPoint" />
          </mxGeometry>
        </mxCell>
        <mxCell id="3pP2C2j7rVUZG_knr3YC-82" value="" style="endArrow=none;html=1;rounded=0;entryX=1;entryY=0.75;entryDx=0;entryDy=0;exitX=0;exitY=1;exitDx=0;exitDy=0;" edge="1" parent="1" source="3pP2C2j7rVUZG_knr3YC-10" target="3pP2C2j7rVUZG_knr3YC-1">
          <mxGeometry width="50" height="50" relative="1" as="geometry">
            <mxPoint x="255" y="160" as="sourcePoint" />
            <mxPoint x="560" y="400" as="targetPoint" />
          </mxGeometry>
        </mxCell>
        <mxCell id="3pP2C2j7rVUZG_knr3YC-83" value="" style="endArrow=none;html=1;rounded=0;exitX=1;exitY=0.5;exitDx=0;exitDy=0;entryX=0;entryY=0.5;entryDx=0;entryDy=0;" edge="1" parent="1" source="3pP2C2j7rVUZG_knr3YC-23" target="3pP2C2j7rVUZG_knr3YC-2">
          <mxGeometry width="50" height="50" relative="1" as="geometry">
            <mxPoint x="-110" y="8" as="sourcePoint" />
            <mxPoint x="-60" y="-42" as="targetPoint" />
          </mxGeometry>
        </mxCell>
        <mxCell id="3pP2C2j7rVUZG_knr3YC-84" value="" style="endArrow=none;html=1;rounded=0;exitX=1;exitY=0;exitDx=0;exitDy=0;entryX=0;entryY=1;entryDx=0;entryDy=0;" edge="1" parent="1" source="3pP2C2j7rVUZG_knr3YC-22" target="3pP2C2j7rVUZG_knr3YC-2">
          <mxGeometry width="50" height="50" relative="1" as="geometry">
            <mxPoint x="-620" y="168" as="sourcePoint" />
            <mxPoint x="-580" y="168" as="targetPoint" />
          </mxGeometry>
        </mxCell>
        <mxCell id="3pP2C2j7rVUZG_knr3YC-85" value="" style="endArrow=none;html=1;rounded=0;exitX=0.5;exitY=0;exitDx=0;exitDy=0;entryX=0.5;entryY=1;entryDx=0;entryDy=0;" edge="1" parent="1" source="3pP2C2j7rVUZG_knr3YC-21" target="3pP2C2j7rVUZG_knr3YC-2">
          <mxGeometry width="50" height="50" relative="1" as="geometry">
            <mxPoint x="-530" y="188" as="sourcePoint" />
            <mxPoint x="-490" y="188" as="targetPoint" />
          </mxGeometry>
        </mxCell>
        <mxCell id="3pP2C2j7rVUZG_knr3YC-86" value="" style="endArrow=none;html=1;rounded=0;exitX=1;exitY=1;exitDx=0;exitDy=0;entryX=0.5;entryY=0;entryDx=0;entryDy=0;exitPerimeter=0;" edge="1" parent="1" source="3pP2C2j7rVUZG_knr3YC-2" target="3pP2C2j7rVUZG_knr3YC-20">
          <mxGeometry width="50" height="50" relative="1" as="geometry">
            <mxPoint x="-420" y="178" as="sourcePoint" />
            <mxPoint x="-380" y="178" as="targetPoint" />
          </mxGeometry>
        </mxCell>
        <mxCell id="3pP2C2j7rVUZG_knr3YC-87" value="" style="endArrow=none;html=1;rounded=0;exitX=0.5;exitY=0;exitDx=0;exitDy=0;entryX=0;entryY=1;entryDx=0;entryDy=0;" edge="1" parent="1" source="3pP2C2j7rVUZG_knr3YC-61" target="3pP2C2j7rVUZG_knr3YC-57">
          <mxGeometry width="50" height="50" relative="1" as="geometry">
            <mxPoint x="482.92" y="647.61" as="sourcePoint" />
            <mxPoint x="532.92" y="597.61" as="targetPoint" />
          </mxGeometry>
        </mxCell>
        <mxCell id="3pP2C2j7rVUZG_knr3YC-88" value="" style="endArrow=none;html=1;rounded=0;exitX=0.5;exitY=0;exitDx=0;exitDy=0;entryX=1;entryY=1;entryDx=0;entryDy=0;" edge="1" parent="1" source="3pP2C2j7rVUZG_knr3YC-59" target="3pP2C2j7rVUZG_knr3YC-57">
          <mxGeometry width="50" height="50" relative="1" as="geometry">
            <mxPoint x="182.92" y="687.61" as="sourcePoint" />
            <mxPoint x="217.92" y="657.61" as="targetPoint" />
          </mxGeometry>
        </mxCell>
        <mxCell id="3pP2C2j7rVUZG_knr3YC-89" value="" style="endArrow=none;html=1;rounded=0;exitX=0.5;exitY=0;exitDx=0;exitDy=0;entryX=0;entryY=1;entryDx=0;entryDy=0;" edge="1" parent="1" source="3pP2C2j7rVUZG_knr3YC-25" target="3pP2C2j7rVUZG_knr3YC-3">
          <mxGeometry width="50" height="50" relative="1" as="geometry">
            <mxPoint x="72.92" y="357.61" as="sourcePoint" />
            <mxPoint x="62.92" y="347.61" as="targetPoint" />
          </mxGeometry>
        </mxCell>
        <mxCell id="3pP2C2j7rVUZG_knr3YC-90" value="" style="endArrow=none;html=1;rounded=0;exitX=0.5;exitY=0;exitDx=0;exitDy=0;entryX=1;entryY=1;entryDx=0;entryDy=0;" edge="1" parent="1" source="3pP2C2j7rVUZG_knr3YC-24" target="3pP2C2j7rVUZG_knr3YC-3">
          <mxGeometry width="50" height="50" relative="1" as="geometry">
            <mxPoint x="142.92" y="357.61" as="sourcePoint" />
            <mxPoint x="177.92" y="327.61" as="targetPoint" />
          </mxGeometry>
        </mxCell>
        <mxCell id="3pP2C2j7rVUZG_knr3YC-91" value="" style="endArrow=none;html=1;rounded=0;exitX=0.5;exitY=0;exitDx=0;exitDy=0;entryX=0;entryY=1;entryDx=0;entryDy=0;" edge="1" parent="1" source="3pP2C2j7rVUZG_knr3YC-19" target="3pP2C2j7rVUZG_knr3YC-5">
          <mxGeometry width="50" height="50" relative="1" as="geometry">
            <mxPoint x="660" y="200" as="sourcePoint" />
            <mxPoint x="695" y="170" as="targetPoint" />
          </mxGeometry>
        </mxCell>
        <mxCell id="3pP2C2j7rVUZG_knr3YC-92" value="" style="endArrow=none;html=1;rounded=0;exitX=0.5;exitY=0;exitDx=0;exitDy=0;entryX=0.5;entryY=1;entryDx=0;entryDy=0;" edge="1" parent="1" source="3pP2C2j7rVUZG_knr3YC-26" target="3pP2C2j7rVUZG_knr3YC-5">
          <mxGeometry width="50" height="50" relative="1" as="geometry">
            <mxPoint x="720" y="200" as="sourcePoint" />
            <mxPoint x="755" y="170" as="targetPoint" />
          </mxGeometry>
        </mxCell>
        <mxCell id="3pP2C2j7rVUZG_knr3YC-93" value="" style="endArrow=none;html=1;rounded=0;exitX=0;exitY=0.5;exitDx=0;exitDy=0;entryX=1;entryY=1;entryDx=0;entryDy=0;" edge="1" parent="1" source="3pP2C2j7rVUZG_knr3YC-44" target="3pP2C2j7rVUZG_knr3YC-5">
          <mxGeometry width="50" height="50" relative="1" as="geometry">
            <mxPoint x="770" y="190" as="sourcePoint" />
            <mxPoint x="805" y="160" as="targetPoint" />
          </mxGeometry>
        </mxCell>
        <mxCell id="3pP2C2j7rVUZG_knr3YC-94" value="" style="endArrow=none;html=1;rounded=0;exitX=0;exitY=0.5;exitDx=0;exitDy=0;entryX=1;entryY=0.75;entryDx=0;entryDy=0;" edge="1" parent="1" source="3pP2C2j7rVUZG_knr3YC-18" target="3pP2C2j7rVUZG_knr3YC-5">
          <mxGeometry width="50" height="50" relative="1" as="geometry">
            <mxPoint x="780" y="130" as="sourcePoint" />
            <mxPoint x="815" y="100" as="targetPoint" />
          </mxGeometry>
        </mxCell>
        <mxCell id="3pP2C2j7rVUZG_knr3YC-95" value="" style="endArrow=none;html=1;rounded=0;exitX=1;exitY=0.5;exitDx=0;exitDy=0;entryX=0;entryY=0.5;entryDx=0;entryDy=0;" edge="1" parent="1" source="3pP2C2j7rVUZG_knr3YC-5" target="3pP2C2j7rVUZG_knr3YC-17">
          <mxGeometry width="50" height="50" relative="1" as="geometry">
            <mxPoint x="770" y="130" as="sourcePoint" />
            <mxPoint x="805" y="100" as="targetPoint" />
          </mxGeometry>
        </mxCell>
        <mxCell id="3pP2C2j7rVUZG_knr3YC-96" value="" style="endArrow=none;html=1;rounded=0;entryX=0.25;entryY=1;entryDx=0;entryDy=0;exitX=0.5;exitY=0;exitDx=0;exitDy=0;" edge="1" parent="1" source="3pP2C2j7rVUZG_knr3YC-29" target="3pP2C2j7rVUZG_knr3YC-4">
          <mxGeometry width="50" height="50" relative="1" as="geometry">
            <mxPoint x="600" y="520" as="sourcePoint" />
            <mxPoint x="705" y="480" as="targetPoint" />
          </mxGeometry>
        </mxCell>
        <mxCell id="3pP2C2j7rVUZG_knr3YC-97" value="" style="endArrow=none;html=1;rounded=0;exitX=0.5;exitY=0;exitDx=0;exitDy=0;entryX=0.75;entryY=1;entryDx=0;entryDy=0;" edge="1" parent="1" source="3pP2C2j7rVUZG_knr3YC-28" target="3pP2C2j7rVUZG_knr3YC-4">
          <mxGeometry width="50" height="50" relative="1" as="geometry">
            <mxPoint x="730" y="500" as="sourcePoint" />
            <mxPoint x="765" y="470" as="targetPoint" />
          </mxGeometry>
        </mxCell>
        <mxCell id="3pP2C2j7rVUZG_knr3YC-98" value="" style="endArrow=none;html=1;rounded=0;exitX=1;exitY=0.5;exitDx=0;exitDy=0;entryX=0;entryY=0.5;entryDx=0;entryDy=0;" edge="1" parent="1" source="3pP2C2j7rVUZG_knr3YC-4" target="3pP2C2j7rVUZG_knr3YC-27">
          <mxGeometry width="50" height="50" relative="1" as="geometry">
            <mxPoint x="720" y="470" as="sourcePoint" />
            <mxPoint x="755" y="440" as="targetPoint" />
          </mxGeometry>
        </mxCell>
        <mxCell id="3pP2C2j7rVUZG_knr3YC-99" value="" style="endArrow=none;html=1;rounded=0;exitX=0;exitY=0.5;exitDx=0;exitDy=0;entryX=1;entryY=0.75;entryDx=0;entryDy=0;" edge="1" parent="1" source="3pP2C2j7rVUZG_knr3YC-30" target="3pP2C2j7rVUZG_knr3YC-4">
          <mxGeometry width="50" height="50" relative="1" as="geometry">
            <mxPoint x="760" y="500" as="sourcePoint" />
            <mxPoint x="795" y="470" as="targetPoint" />
          </mxGeometry>
        </mxCell>
        <mxCell id="3pP2C2j7rVUZG_knr3YC-104" value="Stok" style="ellipse;whiteSpace=wrap;html=1;fillColor=#d5e8d4;strokeColor=#82b366;" vertex="1" parent="1">
          <mxGeometry x="-260" y="372.61" width="110" height="40" as="geometry" />
        </mxCell>
        <mxCell id="3pP2C2j7rVUZG_knr3YC-107" value="" style="endArrow=none;html=1;rounded=0;entryX=0.407;entryY=0.912;entryDx=0;entryDy=0;entryPerimeter=0;exitX=0.5;exitY=0;exitDx=0;exitDy=0;" edge="1" parent="1" source="3pP2C2j7rVUZG_knr3YC-104" target="3pP2C2j7rVUZG_knr3YC-62">
          <mxGeometry width="50" height="50" relative="1" as="geometry">
            <mxPoint x="50" y="400" as="sourcePoint" />
            <mxPoint x="100" y="350" as="targetPoint" />
          </mxGeometry>
        </mxCell>
        <mxCell id="3pP2C2j7rVUZG_knr3YC-108" value="Nama Barang" style="ellipse;whiteSpace=wrap;html=1;fillColor=#d5e8d4;strokeColor=#82b366;" vertex="1" parent="1">
          <mxGeometry x="-149.99999999999997" y="385" width="110" height="40" as="geometry" />
        </mxCell>
        <mxCell id="3pP2C2j7rVUZG_knr3YC-109" value="" style="endArrow=none;html=1;rounded=0;entryX=0.5;entryY=1;entryDx=0;entryDy=0;exitX=0.5;exitY=0;exitDx=0;exitDy=0;" edge="1" parent="1" source="3pP2C2j7rVUZG_knr3YC-108" target="3pP2C2j7rVUZG_knr3YC-62">
          <mxGeometry width="50" height="50" relative="1" as="geometry">
            <mxPoint x="50" y="400" as="sourcePoint" />
            <mxPoint x="100" y="350" as="targetPoint" />
          </mxGeometry>
        </mxCell>
        <mxCell id="3pP2C2j7rVUZG_knr3YC-112" style="edgeStyle=orthogonalEdgeStyle;rounded=0;orthogonalLoop=1;jettySize=auto;html=1;exitX=1;exitY=0.5;exitDx=0;exitDy=0;entryX=0;entryY=0.25;entryDx=0;entryDy=0;" edge="1" parent="1" source="3pP2C2j7rVUZG_knr3YC-110" target="3pP2C2j7rVUZG_knr3YC-1">
          <mxGeometry relative="1" as="geometry" />
        </mxCell>
        <mxCell id="3pP2C2j7rVUZG_knr3YC-113" style="edgeStyle=orthogonalEdgeStyle;rounded=0;orthogonalLoop=1;jettySize=auto;html=1;exitX=0.5;exitY=0;exitDx=0;exitDy=0;entryX=0.5;entryY=0;entryDx=0;entryDy=0;" edge="1" parent="1" source="3pP2C2j7rVUZG_knr3YC-110" target="3pP2C2j7rVUZG_knr3YC-68">
          <mxGeometry relative="1" as="geometry" />
        </mxCell>
        <mxCell id="3pP2C2j7rVUZG_knr3YC-110" value="pembelian" style="rhombus;whiteSpace=wrap;html=1;fillColor=#fff2cc;strokeColor=#d6b656;" vertex="1" parent="1">
          <mxGeometry x="-300" y="90" width="190" height="60" as="geometry" />
        </mxCell>
        <mxCell id="3pP2C2j7rVUZG_knr3YC-122" style="edgeStyle=orthogonalEdgeStyle;rounded=0;orthogonalLoop=1;jettySize=auto;html=1;entryX=0.5;entryY=0;entryDx=0;entryDy=0;" edge="1" parent="1" source="3pP2C2j7rVUZG_knr3YC-121" target="3pP2C2j7rVUZG_knr3YC-4">
          <mxGeometry relative="1" as="geometry" />
        </mxCell>
        <mxCell id="3pP2C2j7rVUZG_knr3YC-121" value="proses transaksi" style="rhombus;whiteSpace=wrap;html=1;fillColor=#fff2cc;strokeColor=#d6b656;" vertex="1" parent="1">
          <mxGeometry x="560" y="292.61" width="190" height="60" as="geometry" />
        </mxCell>
        <mxCell id="3pP2C2j7rVUZG_knr3YC-123" value="*ID Trasaksi" style="ellipse;whiteSpace=wrap;html=1;fillColor=#d5e8d4;strokeColor=#82b366;" vertex="1" parent="1">
          <mxGeometry x="420" y="282.61" width="110" height="40" as="geometry" />
        </mxCell>
        <mxCell id="3pP2C2j7rVUZG_knr3YC-124" value="NO Transaksi" style="ellipse;whiteSpace=wrap;html=1;fillColor=#d5e8d4;strokeColor=#82b366;" vertex="1" parent="1">
          <mxGeometry x="450" y="342.61" width="110" height="40" as="geometry" />
        </mxCell>
        <mxCell id="3pP2C2j7rVUZG_knr3YC-125" value="Nama Barang" style="ellipse;whiteSpace=wrap;html=1;fillColor=#d5e8d4;strokeColor=#82b366;" vertex="1" parent="1">
          <mxGeometry x="780" y="282.61" width="110" height="40" as="geometry" />
        </mxCell>
        <mxCell id="3pP2C2j7rVUZG_knr3YC-126" value="" style="endArrow=none;html=1;rounded=0;entryX=1;entryY=0.5;entryDx=0;entryDy=0;exitX=0;exitY=0;exitDx=0;exitDy=0;" edge="1" parent="1" source="3pP2C2j7rVUZG_knr3YC-121" target="3pP2C2j7rVUZG_knr3YC-123">
          <mxGeometry width="50" height="50" relative="1" as="geometry">
            <mxPoint x="230" y="400" as="sourcePoint" />
            <mxPoint x="280" y="350" as="targetPoint" />
          </mxGeometry>
        </mxCell>
        <mxCell id="3pP2C2j7rVUZG_knr3YC-127" value="Jumlah Barang" style="ellipse;whiteSpace=wrap;html=1;fillColor=#d5e8d4;strokeColor=#82b366;" vertex="1" parent="1">
          <mxGeometry x="750" y="342.61" width="110" height="40" as="geometry" />
        </mxCell>
        <mxCell id="3pP2C2j7rVUZG_knr3YC-128" value="" style="endArrow=none;html=1;rounded=0;entryX=1;entryY=0.5;entryDx=0;entryDy=0;exitX=0;exitY=1;exitDx=0;exitDy=0;" edge="1" parent="1" source="3pP2C2j7rVUZG_knr3YC-121" target="3pP2C2j7rVUZG_knr3YC-124">
          <mxGeometry width="50" height="50" relative="1" as="geometry">
            <mxPoint x="600" y="360" as="sourcePoint" />
            <mxPoint x="522.5" y="355" as="targetPoint" />
          </mxGeometry>
        </mxCell>
        <mxCell id="3pP2C2j7rVUZG_knr3YC-129" value="" style="endArrow=none;html=1;rounded=0;exitX=0;exitY=0;exitDx=0;exitDy=0;entryX=1;entryY=1;entryDx=0;entryDy=0;" edge="1" parent="1" source="3pP2C2j7rVUZG_knr3YC-127" target="3pP2C2j7rVUZG_knr3YC-121">
          <mxGeometry width="50" height="50" relative="1" as="geometry">
            <mxPoint x="740" y="340" as="sourcePoint" />
            <mxPoint x="700" y="335" as="targetPoint" />
          </mxGeometry>
        </mxCell>
        <mxCell id="3pP2C2j7rVUZG_knr3YC-130" value="" style="endArrow=none;html=1;rounded=0;entryX=0;entryY=0.5;entryDx=0;entryDy=0;exitX=1;exitY=0;exitDx=0;exitDy=0;" edge="1" parent="1" source="3pP2C2j7rVUZG_knr3YC-121" target="3pP2C2j7rVUZG_knr3YC-125">
          <mxGeometry width="50" height="50" relative="1" as="geometry">
            <mxPoint x="750" y="300" as="sourcePoint" />
            <mxPoint x="672.5" y="295" as="targetPoint" />
          </mxGeometry>
        </mxCell>
        <mxCell id="3pP2C2j7rVUZG_knr3YC-134" style="edgeStyle=orthogonalEdgeStyle;rounded=0;orthogonalLoop=1;jettySize=auto;html=1;exitX=0.5;exitY=1;exitDx=0;exitDy=0;entryX=1;entryY=0.5;entryDx=0;entryDy=0;" edge="1" parent="1" source="3pP2C2j7rVUZG_knr3YC-131" target="3pP2C2j7rVUZG_knr3YC-136">
          <mxGeometry relative="1" as="geometry">
            <mxPoint x="-270" y="600" as="targetPoint" />
            <Array as="points">
              <mxPoint x="388" y="781" />
              <mxPoint x="-150" y="781" />
              <mxPoint x="-150" y="540" />
            </Array>
          </mxGeometry>
        </mxCell>
        <mxCell id="3pP2C2j7rVUZG_knr3YC-131" value="proses pengiriman" style="rhombus;whiteSpace=wrap;html=1;fillColor=#fff2cc;strokeColor=#d6b656;" vertex="1" parent="1">
          <mxGeometry x="292.92" y="520" width="190" height="60" as="geometry" />
        </mxCell>
        <mxCell id="3pP2C2j7rVUZG_knr3YC-136" value="barang tiba" style="rhombus;whiteSpace=wrap;html=1;fillColor=#fff2cc;strokeColor=#d6b656;" vertex="1" parent="1">
          <mxGeometry x="-460" y="510" width="190" height="60" as="geometry" />
        </mxCell>
        <mxCell id="3pP2C2j7rVUZG_knr3YC-138" value="*ID Trasaksi" style="ellipse;whiteSpace=wrap;html=1;fillColor=#d5e8d4;strokeColor=#82b366;" vertex="1" parent="1">
          <mxGeometry x="-540" y="460" width="110" height="40" as="geometry" />
        </mxCell>
        <mxCell id="3pP2C2j7rVUZG_knr3YC-139" value="Laporan pengiriman" style="ellipse;whiteSpace=wrap;html=1;fillColor=#d5e8d4;strokeColor=#82b366;" vertex="1" parent="1">
          <mxGeometry x="-560" y="580" width="110" height="40" as="geometry" />
        </mxCell>
        <mxCell id="3pP2C2j7rVUZG_knr3YC-140" value="" style="endArrow=none;html=1;rounded=0;exitX=1;exitY=1;exitDx=0;exitDy=0;entryX=0;entryY=0;entryDx=0;entryDy=0;" edge="1" parent="1" source="3pP2C2j7rVUZG_knr3YC-138" target="3pP2C2j7rVUZG_knr3YC-136">
          <mxGeometry width="50" height="50" relative="1" as="geometry">
            <mxPoint x="200" y="440" as="sourcePoint" />
            <mxPoint x="250" y="390" as="targetPoint" />
          </mxGeometry>
        </mxCell>
        <mxCell id="3pP2C2j7rVUZG_knr3YC-141" value="" style="endArrow=none;html=1;rounded=0;exitX=0.5;exitY=0;exitDx=0;exitDy=0;entryX=0;entryY=1;entryDx=0;entryDy=0;" edge="1" parent="1" source="3pP2C2j7rVUZG_knr3YC-139" target="3pP2C2j7rVUZG_knr3YC-136">
          <mxGeometry width="50" height="50" relative="1" as="geometry">
            <mxPoint x="200" y="440" as="sourcePoint" />
            <mxPoint x="250" y="390" as="targetPoint" />
          </mxGeometry>
        </mxCell>
        <mxCell id="3pP2C2j7rVUZG_knr3YC-142" value="penilaian" style="ellipse;whiteSpace=wrap;html=1;fillColor=#d5e8d4;strokeColor=#82b366;" vertex="1" parent="1">
          <mxGeometry x="-370" y="617.61" width="110" height="40" as="geometry" />
        </mxCell>
        <mxCell id="3pP2C2j7rVUZG_knr3YC-144" value="" style="endArrow=none;html=1;rounded=0;entryX=1;entryY=1;entryDx=0;entryDy=0;exitX=0.5;exitY=0;exitDx=0;exitDy=0;" edge="1" parent="1" source="3pP2C2j7rVUZG_knr3YC-142" target="3pP2C2j7rVUZG_knr3YC-136">
          <mxGeometry width="50" height="50" relative="1" as="geometry">
            <mxPoint x="230" y="430" as="sourcePoint" />
            <mxPoint x="280" y="380" as="targetPoint" />
          </mxGeometry>
        </mxCell>
      </root>
    </mxGraphModel>
  </diagram>
</mxfile>
